<?xml version="1.0" encoding="UTF-8"?>
<svg width="94px" height="142px" viewBox="0 0 94 142" version="1.1" xmlns="http://www.w3.org/2000/svg" xmlns:xlink="http://www.w3.org/1999/xlink">
    <!-- Generator: Sketch 50.2 (55047) - http://www.bohemiancoding.com/sketch -->
    <title>c@1x</title>
    <desc>Created with Sketch.</desc>
    <defs></defs>
    <g id="Page-1" stroke="none" stroke-width="1" fill="none" fill-rule="evenodd">
        <g id="Letter" transform="translate(-131.000000, -312.000000)" fill="#000000">
            <path d="M201.149874,312.953509 C201.828494,312.501096 203.07261,312.614198 204.882262,313.292817 C206.691913,313.971436 208.275334,314.367292 209.632573,314.480395 C210.989812,314.593498 212.799436,314.989353 215.0615,315.667973 L217.097348,318.382436 L224.901431,319.739668 C224.901431,321.323113 224.84488,322.56723 224.731777,323.472055 C224.618674,324.376881 223.713861,325.847201 222.017313,327.883059 C220.320765,329.918917 217.775981,333.764368 214.382884,339.419529 L215.0615,341.455377 L212.347037,344.848456 L213.704268,347.56292 L212.007729,348.580844 C207.4836,354.462211 204.316758,360.286939 202.507106,366.055203 C200.697455,371.823467 197.530612,379.51437 193.006484,389.128144 C188.482355,398.741917 184.976208,406.659023 182.487937,412.8797 C179.999666,419.100377 176.154215,426.621628 170.951467,435.443679 L169.254927,432.389907 L170.612159,431.371983 C170.612159,430.014745 171.121116,428.374773 172.139045,426.452018 C173.156974,424.529263 174.457641,421.984479 176.041086,418.817589 L175.023162,418.817589 C173.665924,421.079653 172.704561,422.719625 172.139045,423.737554 C171.573529,424.755483 170.725267,425.829948 169.594235,426.96098 C168.463203,428.092012 167.954246,429.44923 168.067349,431.032675 C168.180453,432.61612 168.237003,434.991252 168.237003,438.158142 L166.540464,438.158142 C165.861844,441.777445 165.57909,444.37878 165.692194,445.962225 C165.805297,447.54567 165.522543,448.676685 164.843924,449.355304 C164.165305,450.033924 163.260492,451.051837 162.12946,452.409076 L160.43292,450.373228 L158.397073,450.373228 L156.361225,454.105616 C156.135019,452.069758 156.021917,450.599438 156.021917,449.694612 C156.021917,448.789787 155.117105,447.262916 153.307454,445.113955 C151.497802,442.964994 150.706091,439.628499 150.932298,435.104371 C151.158504,430.580242 151.667461,426.904443 152.459184,424.076862 C153.250906,421.249282 154.042617,419.100353 154.834339,417.630011 C155.626062,416.159669 156.813628,413.727987 158.397073,410.33489 L160.093613,408.977659 L177.737626,365.885549 L170.612159,370.975168 L164.843924,380.475791 L165.861848,383.190254 L164.504616,385.226102 C161.337726,386.809547 158.510188,386.583344 156.021917,384.547486 L153.986069,385.56541 L149.575066,381.493715 C147.765415,381.493715 146.295095,380.928207 145.164063,379.797175 C143.354411,377.308904 142.053744,375.329628 141.262021,373.859286 C140.470299,372.388944 139.05653,370.748972 137.020672,368.939321 C134.984814,367.129669 133.514494,365.546248 132.609669,364.189009 C131.704843,362.831771 131.47864,361.474553 131.931053,360.117314 C132.383466,358.760075 132.553118,357.742162 132.440015,357.063542 C132.326911,356.384923 132.270361,355.593212 132.270361,354.688387 L133.9669,354.349079 L134.984824,350.616691 L143.128215,354.349079 L175.023162,336.02645 L179.094858,331.276138 L186.89894,329.918906 C188.482385,328.335461 189.839604,325.847228 190.970636,322.454132 C192.101668,319.061035 193.458886,316.346599 195.042331,314.310741 C196.851983,314.310741 198.88781,313.858335 201.149874,312.953509 Z" id="c"></path>
        </g>
    </g>
</svg>