<?xml version="1.0" encoding="UTF-8"?>
<svg width="94px" height="142px" viewBox="0 0 94 142" version="1.1" xmlns="http://www.w3.org/2000/svg" xmlns:xlink="http://www.w3.org/1999/xlink">
    <!-- Generator: Sketch 50.2 (55047) - http://www.bohemiancoding.com/sketch -->
    <title>12@2x</title>
    <desc>Created with Sketch.</desc>
    <defs></defs>
    <g id="Page-1" stroke="none" stroke-width="1" fill="none" fill-rule="evenodd">
        <g id="Desktop-Copy-2" transform="translate(-616.000000, -261.000000)" fill="#000000">
            <path d="M685.445029,261.271448 C686.123648,260.819035 687.367765,260.932137 689.177416,261.610756 C690.987068,262.289376 692.570489,262.685231 693.927728,262.798334 C695.284966,262.911437 697.09459,263.307293 699.356655,263.985912 L701.392502,266.700375 L709.196585,268.057607 C709.196585,269.641052 709.140035,270.885169 709.026931,271.789995 C708.913828,272.69482 708.009016,274.16514 706.312468,276.200998 C704.615919,278.236856 702.071135,282.082308 698.678039,287.737468 L699.356655,289.773316 L696.642191,293.166395 L697.999423,295.880859 L696.302883,296.898783 C691.778755,302.78015 688.611912,308.604878 686.802261,314.373142 C684.992609,320.141406 681.825767,327.83231 677.301638,337.446083 C672.777509,347.059856 669.271362,354.976962 666.783092,361.197639 C664.294821,367.418316 660.449369,374.939567 655.246621,383.761618 L653.550082,380.707846 L654.907313,379.689922 C654.907313,378.332684 655.41627,376.692712 656.434199,374.769957 C657.452128,372.847203 658.752796,370.302418 660.336241,367.135528 L659.318317,367.135528 C657.961078,369.397593 656.999715,371.037565 656.434199,372.055494 C655.868683,373.073423 655.020422,374.147887 653.88939,375.278919 C652.758357,376.409951 652.249401,377.767169 652.362504,379.350614 C652.475607,380.934059 652.532158,383.309191 652.532158,386.476081 L650.835618,386.476081 C650.156999,390.095384 649.874245,392.696719 649.987348,394.280164 C650.100451,395.863609 649.817698,396.994624 649.139078,397.673244 C648.460459,398.351863 647.555647,399.369777 646.424615,400.727015 L644.728075,398.691168 L642.692227,398.691168 L640.65638,402.423555 C640.430173,400.387697 640.317072,398.917377 640.317072,398.012552 C640.317072,397.107726 639.41226,395.580855 637.602608,393.431894 C635.792957,391.282933 635.001246,387.946438 635.227452,383.42231 C635.453659,378.898181 635.962616,375.222382 636.754338,372.394802 C637.546061,369.567221 638.337771,367.418292 639.129494,365.947951 C639.921216,364.477609 641.108782,362.045926 642.692227,358.65283 L644.388767,357.295598 L662.03278,314.203488 L654.907313,319.293108 L649.139078,328.79373 L650.157002,331.508194 L648.79977,333.544041 C645.63288,335.127486 642.805342,334.901283 640.317072,332.865425 L638.281224,333.883349 L633.870221,329.811654 C632.060569,329.811654 630.590249,329.246146 629.459217,328.115114 C627.649566,325.626843 626.348898,323.647567 625.557176,322.177225 C624.765453,320.706883 623.351684,319.066911 621.315827,317.25726 C619.279969,315.447608 617.809649,313.864187 616.904823,312.506949 C615.999997,311.14971 615.773794,309.792492 616.226207,308.435253 C616.67862,307.078015 616.848272,306.060101 616.735169,305.381482 C616.622066,304.702862 616.565515,303.911152 616.565515,303.006326 L618.262055,302.667018 L619.279979,298.934631 L627.42337,302.667018 L659.318317,284.344389 L663.390012,279.594078 L671.194095,278.236846 C672.77754,276.653401 674.134758,274.165167 675.26579,270.772071 C676.396823,267.378974 677.754041,264.664538 679.337486,262.62868 C681.147137,262.62868 683.182965,262.176274 685.445029,261.271448 Z" id="12"></path>
        </g>
    </g>
</svg>